<svg width="16" height="16" viewBox="0 0 16 16" fill="none" xmlns="http://www.w3.org/2000/svg">
<path fill-rule="evenodd" clip-rule="evenodd" d="M1.6 8C1.6 6.30261 2.27429 4.67475 3.47452 3.47452C4.67475 2.27429 6.30261 1.6 8 1.6C9.69739 1.6 11.3253 2.27429 12.5255 3.47452C13.7257 4.67475 14.4 6.30261 14.4 8C14.4 9.69739 13.7257 11.3253 12.5255 12.5255C11.3253 13.7257 9.6974 14.4 8 14.4C6.3026 14.4 4.67475 13.7257 3.47452 12.5255C2.27429 11.3253 1.6 9.6974 1.6 8ZM8 0C3.5816 0 0 3.5816 0 8C0 12.4184 3.5816 16 8 16C12.4184 16 16 12.4184 16 8C16 3.5816 12.4184 0 8 0ZM9.79442 10.9228C9.93307 11.0834 10.1299 11.1824 10.3415 11.1979C10.5531 11.2134 10.7622 11.1443 10.9228 11.0056C11.0834 10.8669 11.1824 10.6701 11.1979 10.4585C11.2134 10.2469 11.1443 10.0378 11.0056 9.87719C10.3576 9.12759 9.37362 8.60279 8.00002 8.60279C6.62722 8.60279 5.64242 9.12759 4.99442 9.87719C4.85575 10.0378 4.78662 10.2469 4.80209 10.4585C4.81762 10.6701 4.91662 10.8669 5.07722 11.0056C5.23782 11.1443 5.44695 11.2134 5.65855 11.1979C5.87015 11.1824 6.06695 11.0834 6.20562 10.9228C6.54082 10.5348 7.07842 10.2028 8.00002 10.2028C8.92162 10.2028 9.45922 10.5348 9.79442 10.9228ZM4.8 6.4C4.8 6.18783 4.88429 5.98435 5.03431 5.83431C5.18435 5.68429 5.38783 5.6 5.6 5.6H5.608C5.82017 5.6 6.02365 5.68429 6.17369 5.83431C6.32371 5.98435 6.408 6.18783 6.408 6.4C6.408 6.61217 6.32371 6.81567 6.17369 6.96567C6.02365 7.11573 5.82017 7.2 5.608 7.2H5.6C5.38783 7.2 5.18435 7.11573 5.03431 6.96567C4.88429 6.81567 4.8 6.61217 4.8 6.4ZM10.4 5.6C10.1878 5.6 9.98433 5.68429 9.83433 5.83431C9.68427 5.98435 9.6 6.18783 9.6 6.4C9.6 6.61217 9.68427 6.81567 9.83433 6.96567C9.98433 7.11573 10.1878 7.2 10.4 7.2H10.408C10.6202 7.2 10.8237 7.11573 10.9737 6.96567C11.1237 6.81567 11.208 6.61217 11.208 6.4C11.208 6.18783 11.1237 5.98435 10.9737 5.83431C10.8237 5.68429 10.6202 5.6 10.408 5.6H10.4Z" fill="black" fill-opacity="0.6"/>
</svg>
