<svg width="24" height="24" viewBox="0 0 24 24" fill="none" xmlns="http://www.w3.org/2000/svg">
<path d="M12 24C18.6274 24 24 18.6274 24 12C24 5.37258 18.6274 0 12 0C5.37258 0 0 5.37258 0 12C0 18.6274 5.37258 24 12 24Z" fill="url(#paint0_radial_213_36)"/>
<path d="M12 24C18.6274 24 24 18.6274 24 12C24 5.37258 18.6274 0 12 0C5.37258 0 0 5.37258 0 12C0 18.6274 5.37258 24 12 24Z" fill="url(#paint1_radial_213_36)"/>
<path d="M16.2981 11.162C16.6041 11.412 17.1341 11.44 17.5821 11.25C18.1141 11.022 18.3561 10.67 18.3641 10.12C18.3721 9.43796 17.8041 8.70996 16.6801 8.63796C14.8281 8.51996 14.1161 10.18 14.0961 10.242C14.0521 10.372 14.1161 10.558 14.4861 10.266C15.6121 9.37596 16.0161 9.52396 16.0161 9.52396C16.0161 9.52396 15.3681 10.398 16.2981 11.162Z" fill="#212121"/>
<path d="M7.85206 11.162C8.15806 11.412 8.68806 11.44 9.13606 11.25C9.66806 11.022 9.91006 10.67 9.91806 10.12C9.92606 9.43796 9.35806 8.70996 8.23406 8.63796C6.38206 8.51996 5.67006 10.18 5.65006 10.242C5.60606 10.372 5.67006 10.558 6.04006 10.266C7.16606 9.37596 7.57006 9.52396 7.57006 9.52396C7.57006 9.52396 6.92206 10.398 7.85206 11.162Z" fill="#212121"/>
<path d="M15.208 14.788L15.184 14.774C15.064 14.702 14.906 14.716 14.8 14.806C14.486 15.074 13.184 15.57 11.998 15.594C10.812 15.57 9.51003 15.074 9.19603 14.806C9.09003 14.716 8.93403 14.7 8.81203 14.774L8.78803 14.788C8.63603 14.88 8.60803 15.068 8.71403 15.204C9.12603 15.72 10.218 16.496 11.996 16.522C13.774 16.498 14.864 15.72 15.278 15.204C15.39 15.068 15.36 14.88 15.208 14.788Z" fill="#212121"/>
<path d="M11.56 17.848C11.416 17.89 11.246 17.998 11.282 18.144C11.294 18.192 11.326 18.23 11.362 18.264C11.476 18.368 11.624 18.428 11.772 18.466C12.19 18.572 12.644 18.5 13.022 18.296C13.24 18.178 13.936 17.658 13.782 17.33C13.658 17.064 13.18 17.434 12.994 17.512C12.532 17.706 12.04 17.71 11.56 17.848Z" fill="#274C5E"/>
<path d="M10.936 13.652C10.648 13.328 10.914 13.16 11.23 13.256C11.63 13.378 12.27 13.32 12.434 12.96C12.75 12.268 12.356 11.878 11.866 10.682C11.354 9.43198 11.996 8.06998 12.736 7.99998C13.33 7.94398 13.132 8.25398 12.946 8.38598C12.582 8.64598 12.2 9.50598 12.786 10.47C13.784 12.108 13.866 12.894 13.27 13.666C12.9 14.146 11.746 14.564 10.936 13.652Z" fill="#274C5E"/>
<path opacity="0.3" d="M15.714 13.784C16.024 14.534 17.24 14.742 18.43 14.248C19.62 13.756 20.334 12.748 20.024 12C19.714 11.25 18.498 11.042 17.308 11.536C16.118 12.028 15.404 13.034 15.714 13.784Z" fill="url(#paint2_radial_213_36)"/>
<path opacity="0.3" d="M9.08603 13.784C8.77603 14.534 7.56003 14.742 6.37003 14.248C5.18003 13.756 4.46603 12.748 4.77603 12C5.08603 11.25 6.30203 11.042 7.49203 11.536C8.68203 12.028 9.39603 13.034 9.08603 13.784Z" fill="url(#paint3_radial_213_36)"/>
<defs>
<radialGradient id="paint0_radial_213_36" cx="0" cy="0" r="1" gradientUnits="userSpaceOnUse" gradientTransform="translate(11.9099 10.4148) scale(13.7343)">
<stop offset="0.3064" stop-color="#6092AB"/>
<stop offset="0.4717" stop-color="#5989A1"/>
<stop offset="0.7485" stop-color="#457287"/>
<stop offset="0.8428" stop-color="#3D687D"/>
</radialGradient>
<radialGradient id="paint1_radial_213_36" cx="0" cy="0" r="1" gradientUnits="userSpaceOnUse" gradientTransform="translate(11.9405 9.23102) scale(17.1209)">
<stop offset="0.762" stop-color="#B2EBF2" stop-opacity="0"/>
<stop offset="1" stop-color="#E0F7FA"/>
</radialGradient>
<radialGradient id="paint2_radial_213_36" cx="0" cy="0" r="1" gradientUnits="userSpaceOnUse" gradientTransform="translate(17.5786 11.7678) rotate(-23.0654) scale(3.27411 2.6168)">
<stop stop-color="white"/>
<stop offset="1" stop-color="#FFF9B9" stop-opacity="0"/>
</radialGradient>
<radialGradient id="paint3_radial_213_36" cx="0" cy="0" r="1" gradientUnits="userSpaceOnUse" gradientTransform="translate(7.31162 11.8372) rotate(-156.935) scale(3.22711 2.57924)">
<stop stop-color="white"/>
<stop offset="1" stop-color="#FFF9B9" stop-opacity="0"/>
</radialGradient>
</defs>
</svg>
