<svg width="24" height="24" viewBox="0 0 24 24" fill="none" xmlns="http://www.w3.org/2000/svg">
<path d="M23.9981 15.2171L20.4 12.0248C20.4038 12.0057 20.4076 11.9867 20.4114 11.9676L24 8.78857L19.2705 7.81905L19.2571 7.79619L20.781 3.21524L16.2057 4.74286L16.1829 4.72762L15.2114 0L12.0019 3.62476H11.9981L8.78286 0.00190476L7.81524 4.74095C7.81143 4.74286 7.80762 4.74476 7.80381 4.74667L3.21905 3.21524L4.74286 7.79619C4.73524 7.80381 4.72952 7.81333 4.72191 7.82095L0.00190476 8.78286L3.62095 11.9962L3.61905 12.0057L0 15.2114L4.74095 16.1848L4.74476 16.1924L3.21714 20.7848L7.7981 19.2552L7.81714 19.2705L8.78857 24L11.9962 20.379H12.0057L15.219 23.9981L16.1848 19.2629L16.1981 19.2552L20.7867 20.7829L19.259 16.2057L19.2724 16.1829L23.9981 15.2171Z" fill="#FFB300"/>
<path d="M23.9981 15.2171L20.4 12.0248C20.4038 12.0057 20.4076 11.9867 20.4114 11.9676L24 8.78857L19.2705 7.81905L19.2571 7.79619L20.781 3.21524L16.2057 4.74286L16.1829 4.72762L15.2114 0L12.0019 3.62476H11.9981L8.78286 0.00190476L7.81524 4.74095C7.81143 4.74286 7.80762 4.74476 7.80381 4.74667L3.21905 3.21524L4.74286 7.79619C4.73524 7.80381 4.72952 7.81333 4.72191 7.82095L0.00190476 8.78286L3.62095 11.9962L3.61905 12.0057L0 15.2114L4.74095 16.1848L4.74476 16.1924L3.21714 20.7848L7.7981 19.2552L7.81714 19.2705L8.78857 24L11.9962 20.379H12.0057L15.219 23.9981L16.1848 19.2629L16.1981 19.2552L20.7867 20.7829L19.259 16.2057L19.2724 16.1829L23.9981 15.2171Z" fill="url(#paint0_radial_213_52)"/>
<path d="M12 20.0877C16.4666 20.0877 20.0876 16.4667 20.0876 12C20.0876 7.53336 16.4666 3.91241 12 3.91241C7.5333 3.91241 3.91235 7.53336 3.91235 12C3.91235 16.4667 7.5333 20.0877 12 20.0877Z" fill="#FFB300"/>
<path d="M12 20.0877C16.4666 20.0877 20.0876 16.4667 20.0876 12C20.0876 7.53336 16.4666 3.91241 12 3.91241C7.5333 3.91241 3.91235 7.53336 3.91235 12C3.91235 16.4667 7.5333 20.0877 12 20.0877Z" fill="url(#paint1_radial_213_52)"/>
<path d="M8.72382 11.3257C9.2761 11.3257 9.72382 10.7995 9.72382 10.1504C9.72382 9.50136 9.2761 8.97519 8.72382 8.97519C8.17153 8.97519 7.72382 9.50136 7.72382 10.1504C7.72382 10.7995 8.17153 11.3257 8.72382 11.3257Z" fill="#5D4037"/>
<path d="M15.2762 11.3256C15.8285 11.3256 16.2762 10.7995 16.2762 10.1504C16.2762 9.50133 15.8285 8.97516 15.2762 8.97516C14.7239 8.97516 14.2762 9.50133 14.2762 10.1504C14.2762 10.7995 14.7239 11.3256 15.2762 11.3256Z" fill="#5D4037"/>
<path d="M14.2495 14.2229C13.9257 14.4343 13.2381 14.9314 11.9981 14.9314C10.7581 14.9314 10.0171 14.4476 9.71425 14.1981C9.5752 14.0819 9.39806 13.9886 9.26853 14.0857C9.13901 14.1829 9.11425 14.381 9.20568 14.5219C9.55615 15.0648 10.4838 15.88 11.9962 15.9067C13.5085 15.88 14.4362 15.0648 14.7866 14.5219C14.8628 14.4038 14.8704 14.2343 14.7809 14.1429C14.6647 14.021 14.4476 14.0933 14.2495 14.2229Z" fill="#5D4037"/>
<path d="M11.0267 13.0515C10.7619 12.781 11.0057 12.6381 11.2972 12.72C11.6648 12.8229 12.2515 12.7734 12.4038 12.4724C12.6934 11.8934 12.3315 11.5658 11.8819 10.5639C11.4134 9.51623 12.0019 8.37528 12.6819 8.31623C13.2267 8.27052 13.0457 8.52957 12.8743 8.64004C12.541 8.85719 12.1886 9.57909 12.7276 10.3867C13.6457 11.76 13.6457 12.4096 13.1715 13.0648C12.8648 13.4877 11.7715 13.8153 11.0267 13.0515Z" fill="#DE7321"/>
<path opacity="0.65" d="M9.40572 13.5029C9.09525 14.2515 8.06287 14.5353 7.09715 14.1372C6.13334 13.7391 5.60191 12.8077 5.91239 12.0591C6.22287 11.3105 7.25525 11.0267 8.22096 11.4248C9.18477 11.8229 9.7162 12.7543 9.40572 13.5029Z" fill="url(#paint2_radial_213_52)"/>
<path opacity="0.65" d="M14.5943 13.5029C14.9048 14.2515 15.9372 14.5353 16.9029 14.1372C17.8667 13.7391 18.3981 12.8077 18.0876 12.0591C17.7772 11.3105 16.7448 11.0267 15.7791 11.4248C14.8153 11.8229 14.2838 12.7543 14.5943 13.5029Z" fill="url(#paint3_radial_213_52)"/>
<defs>
<radialGradient id="paint0_radial_213_52" cx="0" cy="0" r="1" gradientUnits="userSpaceOnUse" gradientTransform="translate(12 12) scale(14.3772)">
<stop offset="0.5558" stop-color="#FFB604"/>
<stop offset="0.6908" stop-color="#FEC61B"/>
<stop offset="0.8224" stop-color="#FDD835"/>
</radialGradient>
<radialGradient id="paint1_radial_213_52" cx="0" cy="0" r="1" gradientUnits="userSpaceOnUse" gradientTransform="translate(12.409 19.0326) scale(12.68 13.7907)">
<stop offset="0.6937" stop-color="#FFB604"/>
<stop offset="0.8488" stop-color="#FEC61B"/>
<stop offset="1" stop-color="#FDD835"/>
</radialGradient>
<radialGradient id="paint2_radial_213_52" cx="0" cy="0" r="1" gradientUnits="userSpaceOnUse" gradientTransform="translate(7.97733 11.6577) rotate(-156.799) scale(2.39596 2.36357)">
<stop stop-color="#EF6C00"/>
<stop offset="1" stop-color="#EF6C00" stop-opacity="0"/>
</radialGradient>
<radialGradient id="paint3_radial_213_52" cx="0" cy="0" r="1" gradientUnits="userSpaceOnUse" gradientTransform="translate(16.0209 11.67) rotate(-23.2014) scale(2.39595 2.36357)">
<stop stop-color="#EF6C00"/>
<stop offset="1" stop-color="#EF6C00" stop-opacity="0"/>
</radialGradient>
</defs>
</svg>
