<svg xmlns="http://www.w3.org/2000/svg" xmlns:xlink="http://www.w3.org/1999/xlink" xmlns:lucid="lucid" width="780" height="220"><g transform="translate(-300 -199.99999999999997)" lucid:page-tab-id="0_0"><path d="M320 226a6 6 0 0 1 6-6h268a6 6 0 0 1 6 6v108a6 6 0 0 1-6 6H326a6 6 0 0 1-6-6z" stroke="#fc9432" fill="#fff"/><use xlink:href="#a" transform="matrix(1,0,0,1,332,232) translate(81.81111111111112 41.77777777777778)"/><use xlink:href="#b" transform="matrix(1,0,0,1,332,232) translate(163.23333333333335 41.77777777777778)"/><use xlink:href="#c" transform="matrix(1,0,0,1,332,232) translate(38.633333333333326 65.64444444444445)"/><path d="M780 226a6 6 0 0 1 6-6h268a6 6 0 0 1 6 6v108a6 6 0 0 1-6 6H786a6 6 0 0 1-6-6z" stroke="#fc9432" fill="#fff"/><use xlink:href="#a" transform="matrix(1,0,0,1,792,231.99999999999997) translate(77.86666666666667 41.77777777777778)"/><use xlink:href="#d" transform="matrix(1,0,0,1,792,231.99999999999997) translate(159.2888888888889 41.77777777777778)"/><use xlink:href="#e" transform="matrix(1,0,0,1,792,231.99999999999997) translate(36.85555555555554 65.64444444444445)"/><path d="M600.96 280h162.2" stroke="#fc9432" fill="none"/><path d="M600.98 280.5h-.52v-1h.52z" stroke="#fc9432" stroke-width=".05" fill="#fc9432"/><path d="M777.92 280l-14.27 4.64v-9.28z" stroke="#fc9432" fill="#fc9432"/><path d="M340 346a6 6 0 0 1 6-6h228a6 6 0 0 1 6 6v48a6 6 0 0 1-6 6H346a6 6 0 0 1-6-6z" stroke="#000" stroke-opacity="0" fill="#fff" fill-opacity="0"/><g><use xlink:href="#f" transform="matrix(1,0,0,1,345,345) translate(0.22677951388888573 33.127170138888886)"/><use xlink:href="#g" transform="matrix(1,0,0,1,345,345) translate(53.254123263888886 33.127170138888886)"/><use xlink:href="#h" transform="matrix(1,0,0,1,345,345) translate(78.35177951388889 33.127170138888886)"/><use xlink:href="#i" transform="matrix(1,0,0,1,345,345) translate(124.39127604166666 33.127170138888886)"/><use xlink:href="#j" transform="matrix(1,0,0,1,345,345) translate(180.81488715277777 33.127170138888886)"/></g><path d="M800 346a6 6 0 0 1 6-6h228a6 6 0 0 1 6 6v48a6 6 0 0 1-6 6H806a6 6 0 0 1-6-6z" stroke="#000" stroke-opacity="0" fill="#fff" fill-opacity="0"/><g><use xlink:href="#k" transform="matrix(1,0,0,1,805,345) translate(20.381944444444457 33.127170138888886)"/><use xlink:href="#l" transform="matrix(1,0,0,1,805,345) translate(63.046875000000014 33.127170138888886)"/><use xlink:href="#m" transform="matrix(1,0,0,1,805,345) translate(154.87630208333334 33.127170138888886)"/></g><defs><path fill="#fc9432" d="M57-191C48-107 192-27 280-27c97 0 254-99 310-169 39-50 65-83 62-166-5-159-71-204-245-204-43 0-128 16-175 9 33-54 156-102 224-125 50-17 39 63 85 49 7-1 26-9 26-8 27 1 48-28 46-55-5-57-86-138-163-130-107 11-177 44-249 89-64 40-151 103-160 192 11 108 88 147 219 147 67 0 156-12 208 7 20 7 30 17 30 30 0 34-38 77-114 130 1-1 0-1 1-1-43 46-146 46-193 1-15-15-43-32-65-30-41 4-67 29-70 70" id="n"/><path fill="#fc9432" d="M450-642c81-9 156-10 231-4 26-13 36-35 36-67 0-81-74-112-168-99-140 19-319-7-450 25-32 17-54 46-55 91v-3c-8 40 21 48 42 67 65 10 127-7 202-2-4 181-23 372-21 564 20 34 93 71 130 26 41-30 19-113 21-180 3-100 12-190 18-284l-1 1c5-43-7-105 15-135" id="o"/><path fill="#fc9432" d="M70-181C36-106 39-36 121-28c46 4 59-41 69-68 14-40 27-86 43-123 28-31 91-34 132-52 22-9 42-12 57-14 23 70 34 146 54 220 8 29 38 43 83 43 40 0 60-20 60-60 0-87-40-149-50-230 28-18 51-84 14-113-11-9-44-19-50-27-27-105-52-214-82-316-19-65-108-61-136-9-73 134-133 295-189 435-24 59-31 107-56 161zm286-369c8 39 19 86 26 125-22 9-48 16-78 17 14-39 32-102 52-142" id="p"/><path fill="#fc9432" d="M538-816c-103 0-163 58-224 101-94 66-163 160-217 269-55 110-57 202-8 302C140-41 287 1 427-52l-2 2c132-36 235-121 302-220 27-40 35-100 41-164 16-162-159-112-258-80-68 22-179 71-172 126 6 46 45 97 100 74 12-5 31-10 52-19l-1 1c26-11 53-18 79-30l-1 1c13-4 22-7 31-11-3 7-21 31-48 59-78 83-170 124-276 124-46 0-75-59-75-102 0-109 89-199 162-266 72-66 122-100 155-100 31 0 47 42 75 42 31 0 46-25 46-74 0-75-36-127-99-127" id="q"/><path fill="#fc9432" d="M562-231c-119 0-201 32-308 40-14 1-42-3-40-14 7-43 5-108 16-155 15-24 58-17 92-28 55-18 122-10 191-10 29 0 63-18 62-50l-1 1c9-54-30-90-85-89l2 1c-79-20-172-1-247 10 3-27 1-57 6-86 80-35 193-36 303-41 17-1 37-7 58-16 38-58-8-126-51-147l1 1c-50-22-116-3-173 4-55 6-120 24-173 38l1-1c-58 17-141 13-134 97 6 67 3 142 3 213 0 107-34 195-34 299 0 91 55 147 155 140 120-8 214-45 346-45 28 0 55-3 82-5h-6c53-8 92-74 55-130-9-16-23-28-41-35-26 5-52 8-80 8zM242-525v-1 1" id="r"/><g id="a"><use transform="matrix(0.022222222222222223,0,0,0.022222222222222223,0,0)" xlink:href="#n"/><use transform="matrix(0.022222222222222223,0,0,0.022222222222222223,14.044444444444444,0)" xlink:href="#o"/><use transform="matrix(0.022222222222222223,0,0,0.022222222222222223,30.022222222222222,0)" xlink:href="#p"/><use transform="matrix(0.022222222222222223,0,0,0.022222222222222223,43.111111111111114,0)" xlink:href="#q"/><use transform="matrix(0.022222222222222223,0,0,0.022222222222222223,60,0)" xlink:href="#r"/></g><path fill="#fc9432" d="M150-24c58 0 67-118 77-183 28-176 77-324 93-509 6-65-46-141-105-95-50 39-97 91-138 134-26 27-45 93-3 118l-3-1c21 19 38 27 67 18-19 145-42 289-56 435-4 41 26 83 68 83" id="s"/><path fill="#fc9432" d="M134-345c49 1 97-57 97-108 0-47-47-85-91-85-59 0-87 37-87 93s29 99 81 100zm-2 282c73 0 133-118 63-170-59-44-144-14-144 71 0 55 27 99 81 99" id="t"/><g id="b"><use transform="matrix(0.022222222222222223,0,0,0.022222222222222223,0,0)" xlink:href="#s"/><use transform="matrix(0.022222222222222223,0,0,0.022222222222222223,6.377777777777778,0)" xlink:href="#t"/></g><path fill="#fc9432" d="M173-13c102-20 79-163 100-261 0-7 2-19 3-27-8-47 57-27 68-2 40 53 67 131 101 192l-1-1c19 54 59 97 104 92 43-5 70-16 73-58 13-23 7-37-3-71-6-23-15-54-34-88-35-66-68-105-104-161 56-50 105-104 147-170 6-29 17-55 20-85 6-72-103-151-170-159l2 1c-139-21-303 2-392 48-38 20-46 85-18 123 36 48 34 126 35 220 2 188-7 191-22 334-6 57 41 80 92 72zm83-631c46-6 199-69 222 5-8 54-52 92-132 119-94 31-95 61-95-72 0-28 2-45 5-52zm67 321l-3-1c1 1 2 1 3 1" id="u"/><path fill="#fc9432" d="M42-70c0 87 115 70 183 54l-1 1c168-29 298-46 412-66 37-61 31-107-28-144-59 12-120 13-178 22 6-108 31-217 31-327 0-55 4-92 13-111 33-5 63-9 97-17 108 2 116-84 54-143-115-14-235 13-335 17-9 1-17 2-25 5l1-1c-26 5-56 8-80 15l1-1c-64 12-112 20-118 81-8 89 119 84 199 63-6 0 1-1 3-1 14-2 24 0 41-3 2 126-16 240-31 354-4 28-1 78-21 91-30 19-88 18-126 30l1-1c-53 5-93 24-93 82" id="v"/><path fill="#fc9432" d="M57-191C48-107 192-27 280-27c97 0 254-99 310-169 39-50 65-83 62-166-5-159-71-204-245-204-43 0-128 16-175 9 33-54 156-102 224-125 50-17 39 63 85 49 7-1 26-9 26-8 27 1 48-28 46-55-5-57-86-138-163-130-107 11-177 44-249 89-64 40-151 103-160 192 11 108 88 147 219 147 67 0 156-12 208 7 20 7 30 17 30 30 0 34-38 77-114 130 1-1 0-1 1-1-43 46-146 46-193 1-15-15-43-32-65-30-41 4-67 29-70 70" id="w"/><path fill="#fc9432" d="M173-13c102-20 79-163 100-261 0-7 2-19 3-27-8-47 57-27 68-2 40 53 67 131 101 192l-1-1c19 54 59 97 104 92 43-5 70-16 73-58 13-23 7-37-3-71-6-23-15-54-34-88-35-66-68-105-104-161 56-50 105-104 147-170 6-29 17-55 20-85 6-72-103-151-170-159l2 1c-139-21-303 2-392 48-38 20-46 85-18 123 36 48 34 126 35 220 2 188-7 191-22 334-6 57 41 80 92 72zm83-631c46-6 199-69 222 5-8 54-52 92-132 119-94 31-95 61-95-72 0-28 2-45 5-52zm67 321l-3-1c1 1 2 1 3 1" id="x"/><path fill="#fc9432" d="M776-292c25-58 39-113 39-189 0-186-105-335-289-347-115-8-264 80-335 176-54 72-128 174-130 306-17 72 19 171 60 209C155-80 284-35 371-30c125 8 185-36 261-79 69-40 112-103 145-184zM507-656c91 0 151 106 151 197 0 107-87 221-167 253-29 11-88 21-133 13l1 1c-87-19-148-53-141-159 8-119 91-193 166-254 44-35 86-51 123-51" id="y"/><path fill="#fc9432" d="M216-409c9 8 16 19 19 30-1 9 8 9 10 13 37 63 77 111 116 172 37 57 163 169 227 172 23 0 40-11 52-32 33-170 13-434 6-619-3-83-39-143-107-149-45-4-69 31-66 79 10 146 31 283 13 439-51-61-104-153-152-217-31-42-51-96-76-155l1 1c-28-66-40-134-124-136-97-1-69 150-80 250-17 150 12 295 5 444-2 50 15 62 51 88 19 2 42 3 59 3 35 2 66-46 57-86l1 1c-10-94-14-194-12-298zm39 2c4 1 2 2 0 3v-3zm229 115c0-2 0-3 1-4-1 1-1 3-1 4" id="z"/><g id="c"><use transform="matrix(0.022222222222222223,0,0,0.022222222222222223,0,0)" xlink:href="#u"/><use transform="matrix(0.022222222222222223,0,0,0.022222222222222223,13.755555555555556,0)" xlink:href="#r"/><use transform="matrix(0.022222222222222223,0,0,0.022222222222222223,28.57777777777778,0)" xlink:href="#q"/><use transform="matrix(0.022222222222222223,0,0,0.022222222222222223,45.46666666666667,0)" xlink:href="#v"/><use transform="matrix(0.022222222222222223,0,0,0.022222222222222223,59.62222222222223,0)" xlink:href="#w"/><use transform="matrix(0.022222222222222223,0,0,0.022222222222222223,73.66666666666667,0)" xlink:href="#o"/><use transform="matrix(0.022222222222222223,0,0,0.022222222222222223,89.64444444444445,0)" xlink:href="#x"/><use transform="matrix(0.022222222222222223,0,0,0.022222222222222223,103.4,0)" xlink:href="#p"/><use transform="matrix(0.022222222222222223,0,0,0.022222222222222223,116.4888888888889,0)" xlink:href="#o"/><use transform="matrix(0.022222222222222223,0,0,0.022222222222222223,132.46666666666667,0)" xlink:href="#v"/><use transform="matrix(0.022222222222222223,0,0,0.022222222222222223,146.62222222222223,0)" xlink:href="#y"/><use transform="matrix(0.022222222222222223,0,0,0.022222222222222223,164.46666666666667,0)" xlink:href="#z"/></g><path fill="#fc9432" d="M359-66c85 2 167 0 243 8 69 7 73-64 45-112-26-45-84-41-156-43-50-1-103 1-152-1 38-51 91-102 134-147 89-94 152-161 171-214 40-109-6-240-126-231-178 13-370 74-424 218-22 58-7 130 59 130 47 0 53-41 68-72 31-62 180-131 296-127-23 87-163 200-223 269-59 68-124 131-187 196-31 32-57 59-64 102-6 37 52 88 84 83 50-8 161-61 232-59" id="A"/><g id="d"><use transform="matrix(0.022222222222222223,0,0,0.022222222222222223,0,0)" xlink:href="#A"/><use transform="matrix(0.022222222222222223,0,0,0.022222222222222223,14.266666666666667,0)" xlink:href="#t"/></g><path fill="#fc9432" d="M603-651c0-97-31-172-120-170-102 1-164 75-214 132-81 91-127 171-181 277-30 59-52 189-20 259C104-74 204-5 336-32c36-8 99-21 126-45 137-73 206-137 206-191 0-71-82-87-131-48-77 62-149 135-266 145-97 8-92-125-54-190 41-69 89-162 136-217 46-53 83-81 115-81 30 22 11 105 74 105 41 0 61-32 61-97" id="B"/><path fill="#fc9432" d="M58-120c0 66 127 98 195 96 131-3 240-41 324-94 105-67 138-161 78-271-25-45-59-78-90-108 15-16 29-31 39-48 16-58 22-147-13-187-60-68-156-89-270-89-121 0-219 3-230 109-2 17 7 29 12 41-8 149-1 314 1 467 0 16-5 27-15 33-21 13-31 30-31 51zm202-60c-10-53-9-118-10-178 63-23 141-33 195-65-7-7 96 83 88 114-25 93-160 123-273 129zm3-494c24-10 55-12 83-12 84 0 126 16 126 47 0 24-82 99-136 108-28 5-50 14-82 14-4-50-7-126 9-157" id="C"/><path fill="#fc9432" d="M615-24c62 1 58-78 47-128 24-171 55-356 55-541 0-64-23-96-70-96-71-1-99 44-94 123-15 114-18 275-42 381-6 28-34 35-58 44-76 27-135 58-212 58-42 0-27-72-25-115 4-84 25-172 38-251l-1 1c12-62 61-162-1-204l2 1c-43-49-114-25-124 36-27 163-69 328-78 509-3 62 15 122 50 146 37 26 87 40 150 40 41 0 198-44 262-67 14 13 28 28 43 46 26 11 45 17 58 17" id="D"/><g id="e"><use transform="matrix(0.022222222222222223,0,0,0.022222222222222223,0,0)" xlink:href="#B"/><use transform="matrix(0.022222222222222223,0,0,0.022222222222222223,14.111111111111112,0)" xlink:href="#y"/><use transform="matrix(0.022222222222222223,0,0,0.022222222222222223,31.955555555555556,0)" xlink:href="#z"/><use transform="matrix(0.022222222222222223,0,0,0.022222222222222223,46.22222222222222,0)" xlink:href="#o"/><use transform="matrix(0.022222222222222223,0,0,0.022222222222222223,62.2,0)" xlink:href="#x"/><use transform="matrix(0.022222222222222223,0,0,0.022222222222222223,75.95555555555556,0)" xlink:href="#v"/><use transform="matrix(0.022222222222222223,0,0,0.022222222222222223,90.11111111111111,0)" xlink:href="#C"/><use transform="matrix(0.022222222222222223,0,0,0.022222222222222223,104.42222222222223,0)" xlink:href="#D"/><use transform="matrix(0.022222222222222223,0,0,0.022222222222222223,120.04444444444445,0)" xlink:href="#o"/><use transform="matrix(0.022222222222222223,0,0,0.022222222222222223,136.02222222222224,0)" xlink:href="#v"/><use transform="matrix(0.022222222222222223,0,0,0.022222222222222223,150.1777777777778,0)" xlink:href="#y"/><use transform="matrix(0.022222222222222223,0,0,0.022222222222222223,168.02222222222224,0)" xlink:href="#z"/></g><path fill="#008a0e" d="M559-1319c-187 0-306 130-241 307 59 162 301 189 444 275 120 72 207 159 207 346 0 287-202 407-496 411-140 2-280-22-369-69v-178c102 46 224 84 369 86 190 2 310-62 313-232 3-135-71-183-163-233-80-44-231-93-309-144-115-76-191-176-191-362 0-255 180-366 438-371 154-3 280 33 383 80l-67 156c-83-36-199-72-318-72" id="E"/><path fill="#008a0e" d="M371-324c1 116 27 195 135 195 53 0 108-9 149-21v138C608 8 544 19 477 20c-210 0-290-128-289-344v-637H33v-81l155-78 78-230h105v252h276v137H371v637" id="F"/><path fill="#008a0e" d="M528-1118c261 0 396 106 396 366V0H793l-37-152h-8C675-50 588 23 412 20 205 16 94-97 94-307c0-109 39-193 116-252s194-91 351-96l184-7c13-190-36-305-217-305-119 0-209 41-292 82l-64-137c93-49 217-96 356-96zM283-305c0 117 66 178 176 178 189 0 281-117 284-311v-99c-222 12-460-2-460 232" id="G"/><path fill="#008a0e" d="M352-897c71-121 155-243 362-219 24 3 45 5 62 8l-24 168c-258-57-396 105-396 348V0H174v-1098h148l22 201h8" id="H"/><g id="f"><use transform="matrix(0.010850694444444444,0,0,0.010850694444444444,0,0)" xlink:href="#E"/><use transform="matrix(0.010850694444444444,0,0,0.010850694444444444,11.534288194444445,0)" xlink:href="#F"/><use transform="matrix(0.010850694444444444,0,0,0.010850694444444444,19.06467013888889,0)" xlink:href="#G"/><use transform="matrix(0.010850694444444444,0,0,0.010850694444444444,30.859375,0)" xlink:href="#H"/><use transform="matrix(0.010850694444444444,0,0,0.010850694444444444,39.724392361111114,0)" xlink:href="#F"/></g><g id="g"><use transform="matrix(0.010850694444444444,0,0,0.010850694444444444,0,0)" xlink:href="#G"/><use transform="matrix(0.010850694444444444,0,0,0.010850694444444444,11.79470486111111,0)" xlink:href="#F"/></g><path fill="#008a0e" d="M125-735c0-454 187-750 637-750 442 0 631 305 631 752 0 345-121 590-359 699-79 36-171 54-274 54-451 0-635-301-635-755zm637-586c-333 0-440 248-440 588 0 338 105 590 438 590s436-251 436-590-102-588-434-588" id="I"/><path fill="#008a0e" d="M860-39C784 1 712 22 594 20c-333-6-481-218-481-563 0-354 148-568 489-575 100-2 211 26 277 59l-54 154c-63-26-137-53-223-53-235 0-301 158-301 413 0 251 67 400 293 406 107 3 193-30 266-62v162" id="J"/><path fill="#008a0e" d="M274 29c-85 0-127-53-127-140 0-88 41-139 127-139s127 51 127 139S359 29 274 29" id="K"/><g id="h"><use transform="matrix(0.010850694444444444,0,0,0.010850694444444444,0,0)" xlink:href="#I"/><use transform="matrix(0.010850694444444444,0,0,0.010850694444444444,16.493055555555554,0)" xlink:href="#J"/><use transform="matrix(0.010850694444444444,0,0,0.010850694444444444,26.77951388888889,0)" xlink:href="#F"/><use transform="matrix(0.010850694444444444,0,0,0.010850694444444444,34.30989583333333,0)" xlink:href="#K"/></g><path fill="#008a0e" d="M711 0H535c2-425-6-859 8-1274-81 86-178 158-269 234l-96-123 383-299h150V0" id="L"/><path fill="#008a0e" d="M916-1288c151 242 158 851 8 1109C854-58 745 20 563 20c-277 0-388-195-437-436-56-279-34-685 78-870 72-118 178-199 359-199 176 0 281 81 353 197zm-484-4c-174 125-166 531-134 821 20 181 74 336 265 336s248-155 269-335c34-292 39-699-138-822-68-48-195-48-262 0" id="M"/><path fill="#008a0e" d="M674-1118c257 0 369 132 368 401V0H860v-707c-1-164-59-259-217-260-230-2-287 167-287 398V0H174v-1556h182c-2 202 6 416-8 606h10c61-100 160-168 316-168" id="N"/><path fill="#008a0e" d="M63 264c38-160 75-332 101-502h198l15 23C333-46 267 115 201 264H63" id="O"/><g id="i"><use transform="matrix(0.010850694444444444,0,0,0.010850694444444444,0,0)" xlink:href="#L"/><use transform="matrix(0.010850694444444444,0,0,0.010850694444444444,12.239583333333332,0)" xlink:href="#M"/><use transform="matrix(0.010850694444444444,0,0,0.010850694444444444,24.479166666666664,0)" xlink:href="#F"/><use transform="matrix(0.010850694444444444,0,0,0.010850694444444444,32.00954861111111,0)" xlink:href="#N"/><use transform="matrix(0.010850694444444444,0,0,0.010850694444444444,45.09548611111111,0)" xlink:href="#O"/></g><path fill="#008a0e" d="M532-1483c259 0 418 134 418 391 0 213-106 338-210 463-129 155-283 306-421 455v8h689V0H96v-156c158-173 332-353 484-529 95-110 186-210 186-400 0-154-83-244-236-244-144 0-233 68-317 137l-102-119c104-92 230-172 421-172" id="P"/><g id="j"><use transform="matrix(0.010850694444444444,0,0,0.010850694444444444,0,0)" xlink:href="#P"/><use transform="matrix(0.010850694444444444,0,0,0.010850694444444444,12.239583333333332,0)" xlink:href="#M"/><use transform="matrix(0.010850694444444444,0,0,0.010850694444444444,24.479166666666664,0)" xlink:href="#P"/><use transform="matrix(0.010850694444444444,0,0,0.010850694444444444,36.71875,0)" xlink:href="#P"/></g><path fill="#ba23f6" d="M809-1462h197c102 393 215 775 308 1176 6 31 11 60 15 85 56-451 176-840 262-1261h199L1423 0h-188c-109-417-232-820-328-1251C818-820 697-417 594 0H406L20-1462h197c81 329 169 652 245 984 20 88 34 185 46 277 65-455 201-841 301-1261" id="Q"/><path fill="#ba23f6" d="M356 0H174v-1098h182V0zm-90-1280c-65 0-106-43-106-115 0-74 40-114 106-114 70 0 105 42 107 114 2 71-44 115-107 115" id="R"/><path fill="#ba23f6" d="M356 0H174v-1556h182V0" id="S"/><g id="k"><use transform="matrix(0.010850694444444444,0,0,0.010850694444444444,0,0)" xlink:href="#Q"/><use transform="matrix(0.010850694444444444,0,0,0.010850694444444444,19.639756944444443,0)" xlink:href="#R"/><use transform="matrix(0.010850694444444444,0,0,0.010850694444444444,25.390625,0)" xlink:href="#S"/><use transform="matrix(0.010850694444444444,0,0,0.010850694444444444,31.14149305555556,0)" xlink:href="#S"/></g><path fill="#ba23f6" d="M528-1118c261 0 396 106 396 366V0H793l-37-152h-8C675-50 588 23 412 20 205 16 94-97 94-307c0-109 39-193 116-252s194-91 351-96l184-7c13-190-36-305-217-305-119 0-209 41-292 82l-64-137c93-49 217-96 356-96zM283-305c0 117 66 178 176 178 189 0 281-117 284-311v-99c-222 12-460-2-460 232" id="T"/><path fill="#ba23f6" d="M674-1118c257 0 369 132 368 401V0H860v-707c-1-164-59-259-217-260-230-2-287 167-287 398V0H174v-1098h148l26 148h10c61-100 160-168 316-168" id="U"/><path fill="#ba23f6" d="M113-551c0-340 147-567 481-567 325 0 475 233 475 567 0 342-147 571-481 571-325 0-475-235-475-571zm477-416c-231 0-289 166-289 416s60 420 291 420 289-170 289-420c0-251-60-416-291-416" id="V"/><path fill="#ba23f6" d="M563-131c230 1 287-166 287-397v-570h182V0H885l-27-147h-10C788-46 687 18 532 20c-259 3-368-141-368-401v-717h182v707c0 164 60 259 217 260" id="W"/><path fill="#ba23f6" d="M860-39C784 1 712 22 594 20c-333-6-481-218-481-563 0-354 148-568 489-575 100-2 211 26 277 59l-54 154c-63-26-137-53-223-53-235 0-301 158-301 413 0 251 67 400 293 406 107 3 193-30 266-62v162" id="X"/><path fill="#ba23f6" d="M944-53C850-7 748 24 608 20c-333-9-495-220-495-561 0-264 92-451 269-538 104-51 258-51 363-3 158 72 246 228 248 455v113H301c6 236 86 371 309 375 139 2 240-31 334-76v162zM797-662c-2-176-59-305-234-305-171 0-246 129-258 305h492" id="Y"/><g id="l"><use transform="matrix(0.010850694444444444,0,0,0.010850694444444444,0,0)" xlink:href="#T"/><use transform="matrix(0.010850694444444444,0,0,0.010850694444444444,11.79470486111111,0)" xlink:href="#U"/><use transform="matrix(0.010850694444444444,0,0,0.010850694444444444,24.88064236111111,0)" xlink:href="#V"/><use transform="matrix(0.010850694444444444,0,0,0.010850694444444444,37.70616319444444,0)" xlink:href="#W"/><use transform="matrix(0.010850694444444444,0,0,0.010850694444444444,50.79210069444444,0)" xlink:href="#U"/><use transform="matrix(0.010850694444444444,0,0,0.010850694444444444,63.87803819444444,0)" xlink:href="#X"/><use transform="matrix(0.010850694444444444,0,0,0.010850694444444444,74.16449652777777,0)" xlink:href="#Y"/></g><path fill="#ba23f6" d="M481-967c-140-5-232 63-189 190 66 110 246 141 360 208 97 57 179 119 179 268C831-65 655 18 414 20 275 21 175-1 90-49v-166c89 44 194 82 324 86 154 5 272-60 229-214-87-145-336-165-454-283-49-49-83-106-83-201 0-211 164-288 381-291 135-2 236 33 330 76l-63 147c-79-33-167-68-273-72" id="Z"/><path fill="#ba23f6" d="M336-414H215l-51-1048h223zM274 29c-85 0-127-53-127-140 0-88 41-139 127-139s127 51 127 139S359 29 274 29" id="aa"/><g id="m"><use transform="matrix(0.010850694444444444,0,0,0.010850694444444444,0,0)" xlink:href="#Z"/><use transform="matrix(0.010850694444444444,0,0,0.010850694444444444,10.026041666666666,0)" xlink:href="#V"/><use transform="matrix(0.010850694444444444,0,0,0.010850694444444444,22.8515625,0)" xlink:href="#V"/><use transform="matrix(0.010850694444444444,0,0,0.010850694444444444,35.67708333333333,0)" xlink:href="#U"/><use transform="matrix(0.010850694444444444,0,0,0.010850694444444444,48.76302083333333,0)" xlink:href="#aa"/></g></defs></g></svg>